<mxfile host="app.diagrams.net" modified="2023-07-31T15:09:29.703Z" agent="Mozilla/5.0 (iPad; CPU OS 17_0 like Mac OS X) AppleWebKit/605.1.15 (KHTML, like Gecko) Version/17.0 Mobile/15E148 Safari/604.1" version="21.6.6" etag="6q2Wfef-6e2wd7Rk9sIe" type="github">
  <diagram name="Page-1" id="0nL1eGnsIj_tT8AlzVXJ">
    <mxGraphModel>
      <root>
        <mxCell id="0" />
        <mxCell id="1" parent="0" />
      </root>
    </mxGraphModel>
  </diagram>
</mxfile>
